<?xml version="1.0" standalone="no"?>
<!DOCTYPE svg PUBLIC "-//W3C//DTD SVG 20010904//EN"
 "http://www.w3.org/TR/2001/REC-SVG-20010904/DTD/svg10.dtd">
<svg version="1.0" xmlns="http://www.w3.org/2000/svg"
 width="906.000000pt" height="592.000000pt" viewBox="0 0 906.000000 592.000000"
 preserveAspectRatio="xMidYMid meet">

<g transform="translate(0.000000,592.000000) scale(0.100000,-0.100000)"
fill="#000000" stroke="none">
<path d="M8300 5717 c-3 -3 -117 -8 -255 -12 -252 -6 -355 -12 -364 -20 -4 -4
32 -9 50 -7 4 1 5 -8 2 -18 -3 -11 -12 -20 -20 -20 -11 0 -13 -7 -9 -25 4 -15
2 -25 -5 -25 -6 0 -8 -11 -5 -27 4 -16 0 -40 -8 -55 -8 -16 -11 -28 -6 -28 5
0 12 11 16 25 9 35 24 31 24 -5 0 -16 -4 -30 -9 -30 -5 0 -11 -9 -14 -20 -3
-11 -12 -20 -21 -20 -9 0 -16 -8 -16 -20 0 -11 7 -20 15 -20 8 0 15 -9 15 -20
0 -12 -7 -20 -16 -20 -21 0 -43 -29 -44 -57 0 -29 16 -38 23 -13 3 11 1 20 -4
20 -14 0 -10 17 5 23 10 4 13 1 9 -8 -3 -8 2 -18 11 -21 23 -9 20 -34 -4 -34
-10 0 -24 -8 -29 -17 -10 -17 -10 -16 -11 2 0 11 -5 27 -11 35 -7 11 -8 3 -3
-29 4 -30 3 -42 -5 -37 -6 4 -9 2 -6 -7 3 -7 -4 -24 -15 -37 -16 -18 -23 -21
-32 -12 -15 15 -28 15 -28 2 0 -5 6 -10 13 -10 21 0 167 -112 217 -166 91 -97
160 -223 196 -354 26 -93 26 -308 0 -410 -59 -235 -234 -441 -459 -540 -120
-53 -349 -78 -458 -50 -22 6 -58 15 -81 21 -73 18 -224 97 -272 141 -25 23
-32 22 -48 0 -14 -20 -106 -76 -182 -112 -49 -23 -124 -45 -203 -59 -23 -4
-49 -13 -57 -20 -10 -8 -16 -9 -21 -1 -8 13 -62 13 -70 0 -5 -8 -11 -8 -19 -1
-7 6 -42 15 -79 20 -79 11 -172 40 -229 71 -13 7 -20 5 -27 -8 -8 -14 -12 -15
-23 -3 -10 11 -10 14 -1 18 16 6 1 23 -37 44 -26 14 -130 19 -130 7 0 -5 26
-8 58 -9 55 -1 56 -1 24 -12 -26 -8 -45 -7 -90 8 -58 18 -172 26 -172 13 0 -5
32 -8 70 -8 39 0 70 -4 70 -8 0 -8 -30 -9 -175 -3 -59 2 -60 3 -27 15 47 17
32 23 -48 20 -51 -2 -70 1 -70 10 0 9 -9 12 -25 8 -14 -2 -25 -8 -25 -13 0
-18 -38 -8 -43 11 -3 12 -14 20 -26 20 -14 0 -21 -6 -21 -20 0 -11 -6 -20 -14
-20 -25 0 -30 22 -10 38 18 13 17 14 -11 8 -16 -4 -36 -7 -42 -8 -7 -1 -13
-10 -13 -20 0 -19 -24 -25 -35 -9 -7 12 22 41 43 42 9 0 4 5 -12 11 -22 8 -31
8 -34 0 -4 -14 -32 -16 -32 -3 0 5 6 12 13 15 6 3 0 4 -15 1 -16 -3 -28 -1
-28 5 0 5 -7 10 -16 10 -8 0 -12 -5 -8 -11 4 -8 1 -8 -14 0 -13 7 -19 17 -16
26 4 8 1 15 -5 15 -6 0 -11 -7 -11 -16 0 -10 -7 -14 -22 -12 -15 2 -23 10 -23
23 0 12 -8 21 -20 23 -11 2 -25 10 -32 19 -10 12 -13 12 -21 -3 -9 -16 -13
-17 -36 -5 -14 8 -23 18 -19 24 3 5 9 3 14 -4 5 -8 9 -9 9 -3 0 6 -6 17 -14
23 -11 9 -15 8 -20 -5 -3 -8 -12 -14 -19 -12 -8 3 -16 47 -23 129 -10 108 -11
63 -10 -344 1 -386 3 -469 15 -476 8 -5 10 -14 6 -21 -5 -8 -4 -11 2 -7 5 3
25 -9 43 -28 19 -19 40 -35 47 -35 7 0 13 -4 13 -9 0 -5 33 -16 73 -24 63 -14
297 -16 1912 -18 1012 -2 1848 1 1857 5 9 4 21 5 26 2 6 -3 12 1 16 9 3 9 12
12 22 8 12 -4 15 -3 10 5 -4 7 -1 12 8 12 9 0 16 4 16 10 0 5 6 7 13 4 16 -6
36 17 71 80 l28 50 -2 1037 c-1 983 -2 1041 -19 1097 -51 158 -203 286 -356
299 -33 2 -62 3 -65 0z m-525 -77 c3 -5 4 -14 0 -20 -8 -13 -35 -1 -35 16 0
16 26 19 35 4z m85 -5 c0 -8 -4 -15 -9 -15 -13 0 -22 16 -14 24 11 11 23 6 23
-9z m90 1 c0 -11 -19 -15 -25 -6 -3 5 1 10 9 10 9 0 16 -2 16 -4z m-231 -80
c-9 -8 -10 -5 -5 14 3 14 6 32 7 40 1 8 4 2 6 -14 3 -16 -1 -34 -8 -40z m61
-18 c0 -5 -9 -8 -20 -8 -23 0 -26 10 -8 28 9 9 14 9 20 -1 4 -6 8 -15 8 -19z
m80 7 c0 -8 -4 -15 -10 -15 -5 0 -10 7 -10 15 0 8 5 15 10 15 6 0 10 -7 10
-15z m90 -5 c0 -5 -4 -10 -10 -10 -5 0 -10 5 -10 10 0 6 5 10 10 10 6 0 10 -4
10 -10z m-176 -85 c-4 -8 -12 -15 -20 -15 -8 0 -14 7 -14 15 0 8 9 15 20 15
13 0 18 -5 14 -15z m86 0 c0 -8 -4 -15 -10 -15 -5 0 -10 7 -10 15 0 8 5 15 10
15 6 0 10 -7 10 -15z m85 5 c3 -5 1 -10 -4 -10 -6 0 -11 5 -11 10 0 6 2 10 4
10 3 0 8 -4 11 -10z m-175 -96 c0 -16 -16 -19 -25 -4 -8 13 4 32 16 25 5 -4 9
-13 9 -21z m90 6 c0 -5 -4 -10 -10 -10 -5 0 -10 5 -10 10 0 6 5 10 10 10 6 0
10 -4 10 -10z m90 0 c0 -5 -4 -10 -10 -10 -5 0 -10 5 -10 10 0 6 5 10 10 10 6
0 10 -4 10 -10z m-178 -95 c0 -5 -5 -11 -11 -13 -6 -2 -11 4 -11 13 0 9 5 15
11 13 6 -2 11 -8 11 -13z m88 5 c0 -5 -4 -10 -10 -10 -5 0 -10 5 -10 10 0 6 5
10 10 10 6 0 10 -4 10 -10z m85 0 c3 -5 1 -10 -4 -10 -6 0 -11 5 -11 10 0 6 2
10 4 10 3 0 8 -4 11 -10z m-255 -84 c0 -20 -19 -31 -32 -18 -6 6 -7 15 -4 21
10 16 36 13 36 -3z m80 -7 c0 -5 -4 -9 -10 -9 -5 0 -10 7 -10 16 0 8 5 12 10
9 6 -3 10 -10 10 -16z m90 1 c0 -5 -4 -10 -10 -10 -5 0 -10 5 -10 10 0 6 5 10
10 10 6 0 10 -4 10 -10z m-250 -40 c0 -5 -5 -10 -11 -10 -5 0 -7 5 -4 10 3 6
8 10 11 10 2 0 4 -4 4 -10z m80 -46 c0 -9 -7 -14 -17 -12 -25 5 -28 28 -4 28
12 0 21 -6 21 -16z m80 1 c0 -8 -4 -15 -10 -15 -5 0 -10 7 -10 15 0 8 5 15 10
15 6 0 10 -7 10 -15z m-3150 -1235 c0 -5 -5 -12 -11 -16 -14 -8 -33 11 -25 25
7 11 36 4 36 -9z m88 -3 c2 -10 -3 -17 -12 -17 -18 0 -29 16 -21 31 9 14 29 6
33 -14z m32 13 c0 -5 -2 -10 -4 -10 -3 0 -8 5 -11 10 -3 6 -1 10 4 10 6 0 11
-4 11 -10z m-40 -114 c-14 -14 -24 0 -16 21 6 15 8 15 16 3 6 -9 5 -19 0 -24z
m179 21 c12 -15 5 -27 -16 -27 -7 0 -13 9 -13 20 0 23 13 26 29 7z m-269 -12
c0 -8 -4 -15 -10 -15 -5 0 -10 7 -10 15 0 8 5 15 10 15 6 0 10 -7 10 -15z
m181 0 c-1 -15 -24 -12 -29 3 -3 9 2 13 12 10 10 -1 17 -7 17 -13z m399 -15
c0 -5 -8 -10 -17 -10 -15 0 -16 2 -3 10 19 12 20 12 20 0z m-225 -80 c-5 -8
-11 -8 -17 -2 -6 6 -7 16 -3 22 5 8 11 8 17 2 6 -6 7 -16 3 -22z m90 12 c0
-18 -20 -15 -23 4 -3 10 1 15 10 12 7 -3 13 -10 13 -16z m89 10 c8 -13 -11
-35 -23 -28 -16 10 -14 36 3 36 8 0 17 -4 20 -8z m86 -13 c0 -24 -23 -21 -28
4 -2 10 3 17 12 17 10 0 16 -9 16 -21z m90 0 c0 -24 -23 -21 -28 4 -2 10 3 17
12 17 10 0 16 -9 16 -21z m90 7 c0 -8 -5 -18 -11 -22 -14 -8 -33 11 -25 25 10
16 36 13 36 -3z m85 -6 c0 -22 -29 -18 -33 3 -3 14 1 18 15 15 10 -2 18 -10
18 -18z m89 12 c8 -13 -11 -35 -23 -28 -16 10 -14 36 3 36 8 0 17 -4 20 -8z
m91 -11 c0 -8 -4 -16 -10 -18 -16 -5 -38 14 -30 26 9 16 40 9 40 -8z m-1065
-1 c0 -5 -4 -10 -10 -10 -5 0 -10 5 -10 10 0 6 5 10 10 10 6 0 10 -4 10 -10z
m90 0 c0 -5 -4 -10 -10 -10 -5 0 -10 5 -10 10 0 6 5 10 10 10 6 0 10 -4 10
-10z m90 0 c0 -5 -4 -10 -10 -10 -5 0 -10 5 -10 10 0 6 5 10 10 10 6 0 10 -4
10 -10z m90 0 c0 -5 -7 -10 -15 -10 -8 0 -15 5 -15 10 0 6 7 10 15 10 8 0 15
-4 15 -10z m1660 0 c0 -5 -5 -10 -11 -10 -5 0 -7 5 -4 10 3 6 8 10 11 10 2 0
4 -4 4 -10z m90 6 c0 -3 -4 -8 -10 -11 -5 -3 -10 -1 -10 4 0 6 5 11 10 11 6 0
10 -2 10 -4z m-1403 -102 c-9 -9 -28 6 -21 18 4 6 10 6 17 -1 6 -6 8 -13 4
-17z m93 5 c0 -5 -7 -9 -15 -9 -15 0 -20 12 -9 23 8 8 24 -1 24 -14z m81 -2
c-13 -13 -26 -3 -16 12 3 6 11 8 17 5 6 -4 6 -10 -1 -17z m89 8 c0 -8 -4 -15
-10 -15 -5 0 -10 7 -10 15 0 8 5 15 10 15 6 0 10 -7 10 -15z m87 -11 c-9 -9
-28 6 -21 18 4 6 10 6 17 -1 6 -6 8 -13 4 -17z m93 5 c0 -5 -7 -9 -15 -9 -15
0 -20 12 -9 23 8 8 24 -1 24 -14z m82 6 c0 -5 -5 -11 -11 -13 -6 -2 -11 4 -11
13 0 9 5 15 11 13 6 -2 11 -8 11 -13z m84 -12 c-10 -10 -19 5 -10 18 6 11 8
11 12 0 2 -7 1 -15 -2 -18z m-1136 7 c0 -5 -2 -10 -4 -10 -3 0 -8 5 -11 10 -3
6 -1 10 4 10 6 0 11 -4 11 -10z m90 0 c0 -5 -4 -10 -10 -10 -5 0 -10 5 -10 10
0 6 5 10 10 10 6 0 10 -4 10 -10z m90 6 c0 -11 -19 -15 -25 -6 -3 5 1 10 9 10
9 0 16 -2 16 -4z m80 -6 c0 -5 -4 -10 -10 -10 -5 0 -10 5 -10 10 0 6 5 10 10
10 6 0 10 -4 10 -10z m90 0 c0 -5 -4 -10 -10 -10 -5 0 -10 5 -10 10 0 6 5 10
10 10 6 0 10 -4 10 -10z m90 0 c0 -5 -4 -10 -10 -10 -5 0 -10 5 -10 10 0 6 5
10 10 10 6 0 10 -4 10 -10z m790 0 c0 -5 -4 -10 -10 -10 -5 0 -10 5 -10 10 0
6 5 10 10 10 6 0 10 -4 10 -10z m90 0 c0 -5 -7 -10 -16 -10 -8 0 -12 5 -9 10
3 6 10 10 16 10 5 0 9 -4 9 -10z m260 0 c0 -5 -4 -10 -10 -10 -5 0 -10 5 -10
10 0 6 5 10 10 10 6 0 10 -4 10 -10z m90 6 c0 -3 -4 -8 -10 -11 -5 -3 -10 -1
-10 4 0 6 5 11 10 11 6 0 10 -2 10 -4z m-1320 -96 c0 -5 -2 -10 -4 -10 -3 0
-8 5 -11 10 -3 6 -1 10 4 10 6 0 11 -4 11 -10z m90 0 c0 -5 -4 -10 -10 -10 -5
0 -10 5 -10 10 0 6 5 10 10 10 6 0 10 -4 10 -10z m90 6 c0 -3 -4 -8 -10 -11
-5 -3 -10 -1 -10 4 0 6 5 11 10 11 6 0 10 -2 10 -4z m90 0 c0 -3 -4 -8 -10
-11 -5 -3 -10 -1 -10 4 0 6 5 11 10 11 6 0 10 -2 10 -4z m80 -6 c0 -5 -4 -10
-10 -10 -5 0 -10 5 -10 10 0 6 5 10 10 10 6 0 10 -4 10 -10z m90 0 c0 -5 -4
-10 -10 -10 -5 0 -10 5 -10 10 0 6 5 10 10 10 6 0 10 -4 10 -10z m90 0 c0 -5
-4 -10 -10 -10 -5 0 -10 5 -10 10 0 6 5 10 10 10 6 0 10 -4 10 -10z m90 6 c0
-11 -19 -15 -25 -6 -3 5 1 10 9 10 9 0 16 -2 16 -4z m80 -6 c0 -5 -4 -10 -10
-10 -5 0 -10 5 -10 10 0 6 5 10 10 10 6 0 10 -4 10 -10z m90 0 c0 -5 -4 -10
-10 -10 -5 0 -10 5 -10 10 0 6 5 10 10 10 6 0 10 -4 10 -10z m90 0 c0 -5 -4
-10 -10 -10 -5 0 -10 5 -10 10 0 6 5 10 10 10 6 0 10 -4 10 -10z m80 0 c0 -5
-2 -10 -4 -10 -3 0 -8 5 -11 10 -3 6 -1 10 4 10 6 0 11 -4 11 -10z"/>
<path d="M6003 5225 c-313 -55 -565 -290 -643 -600 -23 -91 -27 -274 -9 -352
74 -311 280 -531 579 -618 96 -29 319 -27 410 2 91 29 176 69 240 114 61 42
160 134 160 149 0 6 -35 10 -79 10 -76 0 -80 1 -100 29 -12 16 -21 32 -21 35
0 3 59 7 132 8 l132 3 23 40 c12 21 19 43 17 47 -3 4 -88 8 -188 8 -166 0
-184 2 -189 18 -2 9 -8 25 -12 35 -7 16 7 17 209 17 184 0 217 2 221 15 3 8 7
22 10 30 3 12 12 10 47 -10 46 -26 99 -32 144 -15 38 15 21 25 -42 26 -99 1
-149 63 -147 179 1 69 27 154 52 169 6 4 11 12 11 18 0 6 -8 4 -18 -5 -24 -22
-32 -21 -32 3 0 19 -7 20 -240 20 -260 0 -252 -2 -230 55 l10 26 211 -1 c116
-1 213 0 215 3 2 2 -2 21 -9 43 l-14 39 -181 3 c-121 2 -182 6 -182 13 0 6 9
24 21 40 l20 29 135 0 c74 0 134 3 134 6 0 3 -14 24 -31 45 -30 39 -31 39
-100 39 -38 0 -69 4 -69 8 0 5 14 18 30 30 17 13 30 31 30 41 0 10 -25 36 -57
61 -166 123 -400 180 -600 145z m-393 -712 c3 -59 8 -103 11 -98 4 6 21 53 39
105 18 52 33 96 35 98 8 9 128 6 131 -3 2 -5 -11 -95 -29 -200 l-32 -190 -43
-3 c-49 -4 -48 -9 -27 128 21 135 18 138 -21 25 -55 -159 -53 -155 -84 -155
-25 0 -28 4 -34 46 -3 26 -6 78 -6 116 0 87 -15 81 -24 -9 -4 -37 -12 -87 -18
-110 -10 -41 -12 -43 -49 -43 -22 0 -39 5 -39 10 0 6 11 75 24 153 13 78 27
162 30 186 4 24 8 47 10 50 2 3 30 5 63 4 l58 -1 5 -109z m807 66 c-4 -15 0
-23 14 -26 12 -4 19 -14 19 -30 0 -34 -18 -63 -34 -57 -18 7 -23 -10 -32 -95
-6 -67 -6 -71 14 -71 27 0 33 -11 23 -46 -10 -39 -68 -55 -108 -29 -25 17 -26
19 -20 99 3 44 13 125 23 179 l18 97 44 0 c40 0 44 -2 39 -21z m-397 -34 c16
-8 35 -25 41 -36 12 -23 7 -103 -14 -221 l-11 -68 -38 0 c-21 0 -38 4 -38 9 0
5 -18 2 -40 -5 -73 -25 -120 5 -120 78 0 82 47 128 133 128 40 0 47 3 47 20 0
25 -35 34 -95 26 -48 -8 -51 -4 -39 40 3 12 15 26 27 32 33 16 114 14 147 -3z
m268 -18 c5 -39 -13 -57 -51 -51 -18 3 -38 1 -46 -5 -17 -11 -8 -39 16 -48 44
-15 63 -45 63 -99 0 -83 -19 -98 -124 -103 l-86 -3 0 41 0 41 40 -6 c81 -13
120 20 60 51 -51 26 -70 54 -70 103 0 82 38 113 135 109 58 -2 60 -3 63 -30z
m369 13 c41 -25 60 -81 47 -142 l-9 -43 -83 -3 c-89 -3 -105 -16 -57 -48 25
-16 60 -16 114 1 23 8 24 7 17 -31 -4 -21 -11 -43 -16 -48 -4 -4 -37 -9 -72
-9 -106 -2 -158 47 -158 150 0 65 39 146 82 173 42 25 94 26 135 0z m248 3
c-3 -10 -9 -30 -12 -46 -3 -15 -18 -36 -33 -47 -27 -19 -32 -34 -58 -180 l-8
-45 -44 0 c-40 0 -45 2 -41 20 1 11 13 83 25 160 l22 140 33 3 c18 2 38 -1 45
-7 9 -8 18 -7 32 4 27 20 48 19 39 -2z"/>
<path d="M5912 4364 c-18 -8 -33 -40 -26 -58 7 -19 47 -21 63 -3 6 8 12 24 13
38 2 18 -2 24 -17 26 -11 1 -26 -1 -33 -3z"/>
<path d="M6557 4462 c-25 -27 -21 -32 22 -32 44 0 59 13 41 35 -17 20 -44 19
-63 -3z"/>
<path d="M2712 5025 c-91 -17 -206 -72 -260 -124 -66 -65 -96 -132 -96 -221
-1 -64 3 -82 27 -122 37 -64 96 -109 234 -182 96 -50 122 -68 137 -97 17 -31
18 -38 5 -64 -8 -18 -32 -39 -59 -52 -80 -41 -253 -28 -379 28 -27 12 -47 16
-51 10 -3 -6 -14 -60 -24 -122 -15 -89 -16 -113 -6 -119 7 -4 45 -16 84 -26
56 -15 107 -19 241 -18 162 0 174 2 245 28 171 65 258 167 268 314 9 142 -50
219 -247 322 -130 67 -163 95 -163 136 0 68 110 106 247 86 46 -7 99 -19 119
-27 19 -8 39 -15 44 -15 6 0 17 50 27 112 21 134 24 129 -103 152 -102 19
-189 19 -290 1z"/>
<path d="M1512 5003 c-5 -10 -72 -174 -148 -366 -80 -203 -141 -342 -145 -335
-4 7 -11 35 -15 62 -19 140 -149 318 -329 452 -42 31 -80 52 -84 48 -5 -5 14
-85 40 -179 56 -195 68 -238 109 -390 78 -281 92 -331 100 -352 9 -22 13 -23
157 -23 82 0 153 4 159 8 5 4 18 25 28 47 47 108 65 148 201 465 70 162 154
357 186 432 32 75 59 139 59 142 0 3 -70 6 -155 6 -137 0 -155 -2 -163 -17z"/>
<path d="M1945 5008 c-2 -7 -34 -193 -71 -413 -37 -220 -77 -458 -89 -530 -12
-71 -19 -134 -15 -138 4 -4 71 -6 151 -5 l144 3 13 80 c7 44 47 288 90 543 43
255 76 465 73 467 -2 3 -69 5 -148 5 -106 0 -145 -3 -148 -12z"/>
<path d="M3555 5006 c-16 -7 -38 -22 -48 -33 -10 -11 -60 -116 -113 -234 -52
-118 -101 -227 -108 -244 -68 -147 -246 -558 -246 -566 0 -6 58 -8 157 -7
l156 3 31 83 31 82 186 0 187 0 18 -82 19 -83 134 -3 c74 -1 137 1 141 5 4 4
-10 85 -32 178 -21 94 -45 197 -52 230 -7 33 -39 175 -71 315 -32 140 -63 280
-69 310 l-12 55 -139 2 c-100 2 -149 -1 -170 -11z m128 -421 c9 -38 25 -111
36 -161 12 -50 21 -97 21 -103 0 -8 -34 -11 -117 -9 -72 2 -117 7 -116 13 1 6
11 33 21 60 38 100 104 271 114 295 l10 25 8 -25 c4 -14 15 -56 23 -95z"/>
<path d="M7787 4604 c-10 -11 -9 -74 2 -74 12 0 23 62 13 72 -5 5 -11 5 -15 2z"/>
<path d="M7042 4528 c-20 -20 -14 -24 28 -20 23 2 47 -1 55 -8 12 -10 16 -9
21 3 3 9 3 21 -1 27 -9 14 -88 13 -103 -2z"/>
<path d="M7172 4518 c-7 -7 -12 -28 -12 -47 l0 -36 88 1 c110 2 105 0 91 25
-10 20 -17 21 -75 16 l-65 -6 3 26 c3 29 -11 40 -30 21z"/>
<path d="M7436 4518 c-3 -12 -9 -54 -32 -246 -4 -29 -11 -55 -15 -58 -23 -14
-4 -24 42 -24 58 0 66 23 10 28 -31 3 -33 5 -28 35 3 18 12 76 20 129 9 54 18
106 22 117 3 11 1 22 -5 26 -5 3 -12 0 -14 -7z"/>
<path d="M7590 4476 c-7 -13 -21 -27 -31 -29 -19 -5 -27 -37 -10 -37 5 0 5
-16 1 -37 -10 -40 3 -118 23 -144 27 -36 66 -52 104 -43 21 4 62 6 91 5 31 -2
52 1 52 7 0 20 -23 25 -102 24 -67 -1 -82 2 -104 21 -44 38 -53 150 -17 220
18 35 12 47 -7 13z"/>
<path d="M7703 4463 c-20 -8 -15 -23 7 -23 30 0 44 -38 32 -83 -11 -38 -3 -48
17 -23 16 19 16 102 1 121 -12 15 -34 18 -57 8z"/>
<path d="M7145 4370 c-12 -14 -18 -37 -19 -82 -1 -54 2 -67 22 -87 20 -20 29
-22 65 -17 23 4 66 8 94 9 52 2 74 19 33 25 -11 2 -20 8 -20 14 0 6 -10 4 -24
-5 -34 -23 -103 -11 -123 20 -18 28 -21 99 -4 116 6 6 11 15 11 19 0 14 -16 9
-35 -12z"/>
<path d="M7264 4356 c-18 -14 -18 -15 -1 -21 12 -5 16 -14 12 -26 -4 -13 -1
-19 8 -19 19 0 34 18 42 53 6 24 4 27 -17 27 -13 0 -33 -6 -44 -14z"/>
<path d="M5620 3775 c0 -8 4 -15 10 -15 5 0 7 7 4 15 -4 8 -8 15 -10 15 -2 0
-4 -7 -4 -15z"/>
<path d="M5733 2209 c-56 -28 -83 -72 -83 -137 0 -69 29 -102 120 -138 80 -31
110 -55 110 -88 0 -43 -33 -71 -84 -71 -37 0 -51 6 -78 33 l-34 32 -32 -33
-33 -34 30 -32 c83 -89 238 -86 309 7 23 30 27 45 27 103 0 61 -3 71 -29 98
-16 16 -58 42 -95 57 -80 33 -101 50 -101 80 0 50 79 70 130 34 l28 -20 26 32
26 33 -25 22 c-52 45 -145 55 -212 22z"/>
<path d="M6220 2221 c-50 -16 -89 -41 -128 -86 -112 -127 -89 -312 51 -409 50
-35 64 -39 129 -44 69 -4 157 10 158 26 5 70 4 112 -3 112 -5 0 -20 -8 -33
-19 -50 -39 -141 -35 -198 10 -60 47 -82 141 -51 217 23 53 51 79 106 97 57
19 93 14 144 -20 19 -14 35 -22 36 -20 0 3 1 29 1 58 1 50 0 53 -33 69 -36 19
-131 23 -179 9z"/>
<path d="M4997 2213 c-4 -3 -7 -123 -7 -265 l0 -258 118 0 c96 0 125 4 162 21
123 55 183 183 150 320 -18 73 -94 150 -170 173 -54 16 -240 23 -253 9z m248
-113 c72 -44 97 -156 52 -235 -27 -49 -93 -85 -154 -85 l-43 0 0 176 0 177 57
-7 c31 -4 71 -15 88 -26z"/>
<path d="M5480 1955 l0 -265 50 0 50 0 0 265 0 265 -50 0 -50 0 0 -265z"/>
<path d="M7020 2215 c0 -5 42 -111 60 -150 5 -11 43 -101 84 -200 40 -99 81
-184 90 -190 11 -7 21 -6 33 1 14 9 227 488 236 529 1 6 -21 11 -50 13 -62 4
-53 15 -134 -188 -32 -79 -61 -146 -66 -147 -4 -2 -37 73 -73 165 l-65 167
-58 3 c-31 2 -57 0 -57 -3z"/>
<path d="M7577 2213 c-2 -5 -3 -123 -3 -263 l1 -255 148 -3 147 -3 0 46 0 45
-95 0 -95 0 0 70 0 70 90 0 90 0 0 45 0 44 -87 3 -88 3 -3 58 -3 57 96 0 95 0
0 45 0 45 -144 0 c-80 0 -147 -3 -149 -7z"/>
<path d="M7940 1966 c0 -141 0 -259 0 -263 0 -5 23 -8 51 -8 l52 0 -2 103 c-1
57 2 102 7 102 5 0 40 -47 78 -105 l69 -105 63 0 c34 0 62 2 62 5 0 3 -34 51
-75 105 -41 54 -75 103 -75 107 0 4 15 15 33 23 102 48 103 211 1 264 -31 17
-62 22 -151 24 l-113 4 0 -256z m172 164 c95 -27 69 -156 -28 -148 l-39 3 -3
64 c-5 96 -1 100 70 81z"/>
<path d="M2660 1755 c7 -8 17 -15 22 -15 5 0 3 7 -6 15 -8 8 -18 15 -22 15 -3
0 -1 -7 6 -15z"/>
<path d="M2708 1733 c7 -3 16 -2 19 1 4 3 -2 6 -13 5 -11 0 -14 -3 -6 -6z"/>
<path d="M700 1719 c0 -5 14 -9 30 -9 39 0 39 15 0 16 -17 1 -30 -3 -30 -7z"/>
<path d="M1040 1718 c0 -5 37 -8 82 -8 45 0 79 3 75 6 -9 9 -157 10 -157 2z"/>
<path d="M1350 1718 c0 -5 14 -8 30 -8 17 0 30 4 30 9 0 4 -13 8 -30 7 -16 -1
-30 -4 -30 -8z"/>
<path d="M1560 1719 c0 -5 17 -9 37 -9 20 0 33 3 30 6 -10 11 -67 13 -67 3z"/>
<path d="M1720 1718 c0 -5 61 -8 137 -8 75 0 134 3 131 6 -9 8 -268 10 -268 2z"/>
<path d="M2070 1718 c0 -4 16 -8 35 -8 19 0 35 4 35 8 0 4 -16 8 -35 8 -19 0
-35 -4 -35 -8z"/>
<path d="M2340 1718 c0 -5 14 -8 30 -8 17 0 30 4 30 9 0 4 -13 8 -30 7 -16 -1
-30 -4 -30 -8z"/>
<path d="M2490 1718 c0 -5 14 -8 30 -8 17 0 30 4 30 9 0 4 -13 8 -30 7 -16 -1
-30 -4 -30 -8z"/>
<path d="M2820 1720 l-45 -7 47 -1 c26 -1 50 3 53 8 3 6 3 9 -2 8 -4 0 -28 -4
-53 -8z"/>
<path d="M3150 1718 c0 -5 36 -8 80 -8 44 0 80 3 80 8 0 4 -36 7 -80 7 -44 0
-80 -3 -80 -7z"/>
<path d="M3497 1718 c2 -5 26 -8 54 -8 27 0 49 3 49 8 0 4 -24 7 -54 7 -30 0
-52 -3 -49 -7z"/>
<path d="M3712 1660 c0 -14 2 -19 5 -12 2 6 2 18 0 25 -3 6 -5 1 -5 -13z"/>
<path d="M622 1613 c37 -2 100 -2 140 0 40 1 10 3 -67 3 -77 0 -110 -1 -73 -3z"/>
<path d="M1043 1613 c42 -2 112 -2 155 0 42 1 7 3 -78 3 -85 0 -120 -2 -77 -3z"/>
<path d="M1338 1613 c23 -2 59 -2 80 0 20 2 1 4 -43 4 -44 0 -61 -2 -37 -4z"/>
<path d="M1673 1613 c104 -2 270 -2 370 0 100 1 16 2 -188 2 -203 0 -285 -1
-182 -2z"/>
<path d="M2353 1613 c54 -2 139 -2 190 0 51 1 7 3 -98 3 -104 0 -146 -2 -92
-3z"/>
<path d="M2783 1613 c32 -2 81 -2 110 0 29 2 3 3 -58 3 -60 0 -84 -1 -52 -3z"/>
<path d="M3163 1613 c42 -2 112 -2 155 0 42 1 7 3 -78 3 -85 0 -120 -2 -77 -3z"/>
<path d="M3503 1613 c37 -2 96 -2 130 0 34 2 4 3 -68 3 -71 0 -99 -1 -62 -3z"/>
<path d="M1423 1533 c71 -2 183 -2 250 0 67 1 10 3 -128 3 -137 0 -192 -2
-122 -3z"/>
<path d="M2105 1533 c128 -2 208 -7 222 -15 13 -6 26 -8 29 -5 19 19 -64 27
-249 25 l-202 -3 200 -2z"/>
<path d="M2540 1533 c96 -2 179 -8 184 -13 6 -6 19 -10 31 -9 16 0 14 3 -10
14 -22 11 -75 14 -205 12 l-175 -1 175 -3z"/>
<path d="M2878 1533 c61 -2 163 -2 225 0 61 1 11 3 -113 3 -124 0 -174 -2
-112 -3z"/>
<path d="M3234 1524 c-19 -15 -19 -16 1 -7 11 4 90 10 175 13 l155 6 -156 2
c-129 2 -158 -1 -175 -14z"/>
<path d="M3584 1525 c-15 -11 -16 -14 -3 -15 8 0 19 4 25 10 5 5 72 11 149 13
l140 3 -146 2 c-115 2 -149 -1 -165 -13z"/>
<path d="M1817 1486 c26 -31 29 -32 46 -17 11 9 24 25 29 36 9 17 7 16 -16 -4
l-26 -24 -23 21 c-36 34 -42 26 -10 -12z"/>
<path d="M1270 1333 l0 -178 -520 3 c-413 2 -521 0 -525 -10 -9 -29 -18 -193
-19 -348 l-1 -165 31 -60 c20 -37 60 -87 105 -130 69 -66 102 -86 190 -114 57
-18 3649 -16 3692 3 39 16 128 91 119 100 -3 4 -2 10 3 14 6 4 16 24 23 45 11
30 12 94 7 300 -7 278 -8 296 -20 340 l-7 27 -194 0 c-123 0 -194 4 -194 10 0
6 72 10 195 10 121 0 195 4 195 10 0 6 -77 11 -197 12 l-198 3 -10 33 c-5 17
-13 32 -17 32 -4 0 -9 55 -10 123 l-2 122 -5 -115 c-5 -97 -3 -124 13 -171 17
-51 18 -61 5 -104 -20 -70 -73 -125 -129 -135 -61 -12 -327 -12 -335 -1 -3 6
-18 6 -38 0 -17 -5 -206 -9 -419 -9 l-387 0 -4 68 -3 67 -2 -67 -2 -68 -130 0
-130 0 0 66 0 67 -37 -7 c-21 -3 -50 -6 -65 -6 -26 0 -27 -2 -30 -57 l-3 -58
-156 -3 -156 -2 -24 35 c-13 19 -26 35 -30 35 -3 0 -20 -16 -39 -35 l-34 -35
-243 0 -243 0 0 265 c0 170 -4 265 -10 265 -6 0 -10 -66 -10 -177z"/>
<path d="M5750 1343 c0 -146 1 -153 20 -153 18 0 20 7 20 88 0 49 2 91 6 94 3
3 46 -38 97 -91 51 -54 95 -96 100 -94 10 6 9 265 -2 282 -5 8 -16 11 -25 8
-13 -5 -16 -23 -16 -92 0 -47 -3 -85 -7 -85 -4 0 -49 44 -99 98 l-93 97 -1
-152z"/>
<path d="M6067 1473 c-4 -3 -7 -69 -7 -145 l0 -138 74 0 c76 0 91 6 80 34 -5
12 -20 16 -61 16 l-54 0 3 43 3 42 53 3 c43 3 52 6 52 22 0 16 -9 19 -52 22
-49 3 -53 5 -56 31 -3 27 -2 27 51 27 56 0 78 15 54 39 -12 12 -129 16 -140 4z"/>
<path d="M6244 1466 c-8 -22 4 -36 31 -36 24 0 24 -1 27 -117 3 -110 4 -118
23 -118 19 0 20 8 23 117 l3 117 27 3 c19 2 27 9 27 23 0 18 -8 20 -78 23 -61
2 -78 0 -83 -12z"/>
<path d="M6438 1474 c-4 -3 -3 -16 2 -28 5 -11 29 -73 54 -136 24 -63 49 -116
54 -118 5 -1 22 33 38 78 16 44 33 79 38 77 5 -2 23 -40 39 -85 16 -46 32 -80
35 -78 3 3 31 67 62 143 57 135 63 172 22 147 -15 -10 -36 -53 -72 -149 -12
-30 -12 -29 -45 60 -18 50 -36 90 -40 90 -5 0 -22 -37 -39 -82 -17 -46 -34
-83 -38 -83 -3 0 -10 10 -14 23 -7 25 -41 105 -53 127 -9 16 -33 24 -43 14z"/>
<path d="M6914 1470 c-11 -4 -34 -24 -52 -44 -28 -32 -32 -44 -32 -93 0 -54 2
-58 45 -100 40 -38 50 -43 93 -43 85 0 152 64 152 145 0 101 -111 174 -206
135z m106 -45 c36 -19 50 -43 50 -90 0 -48 -25 -83 -69 -96 -47 -14 -85 0
-111 43 -30 49 -26 84 14 124 38 38 70 43 116 19z"/>
<path d="M7178 1474 c-5 -4 -8 -70 -8 -146 0 -131 1 -138 20 -138 18 0 20 7
20 55 0 30 4 55 9 55 4 0 25 -25 45 -55 33 -50 60 -67 79 -49 3 4 -12 30 -33
60 -38 50 -39 54 -22 66 75 53 43 143 -53 154 -27 3 -53 3 -57 -2z m101 -62
c14 -26 -13 -64 -42 -60 -22 3 -34 35 -23 64 8 20 53 17 65 -4z"/>
<path d="M7395 1468 c-3 -8 -4 -72 -3 -144 3 -121 4 -129 23 -129 17 0 21 8
25 60 l5 60 49 -63 c46 -58 78 -76 99 -56 3 4 -21 37 -54 75 -32 38 -59 73
-59 77 0 4 25 32 55 62 30 30 55 58 55 62 0 4 -10 8 -23 8 -14 0 -41 -19 -72
-51 l-50 -50 -5 48 c-4 35 -10 49 -23 51 -9 2 -19 -3 -22 -10z"/>
<path d="M1390 1250 l0 -180 169 0 169 0 53 63 c29 34 55 64 57 67 2 3 31 -26
65 -63 l62 -68 78 1 77 0 0 65 0 65 84 0 c135 0 176 27 176 116 0 41 -5 56
-25 76 -32 32 -67 38 -246 38 l-146 0 -44 -51 c-24 -28 -45 -55 -47 -60 -6
-16 -41 -9 -55 11 -8 11 -31 38 -51 60 l-37 40 -169 0 -170 0 0 -180z m373
124 c23 -26 49 -55 58 -65 9 -11 21 -19 27 -19 6 0 37 29 68 65 40 45 65 65
81 65 13 0 23 -5 23 -12 0 -9 3 -9 12 0 19 19 226 16 274 -4 22 -9 42 -21 46
-28 16 -23 8 -103 -11 -127 -17 -22 -28 -24 -120 -27 -57 -2 -101 -8 -101 -14
0 -5 -10 -8 -22 -6 -22 3 -23 9 -29 103 -6 110 -10 78 -15 -100 -2 -87 -5
-111 -17 -113 -8 -2 -21 8 -30 21 -8 13 -39 49 -67 81 l-53 57 39 42 c68 72
88 97 82 102 -2 3 -35 -29 -72 -70 l-67 -75 20 -29 c11 -15 18 -31 14 -35 -3
-3 1 -6 10 -6 9 0 19 -4 22 -10 11 -17 -23 -11 -42 8 -42 41 -51 45 -68 28 -9
-9 -23 -16 -31 -16 -13 0 -12 5 4 28 24 34 20 45 -51 120 l-50 52 -113 0
c-156 0 -158 -19 -3 -22 l122 -3 50 -57 50 -57 -54 -60 -54 -60 -117 0 -118
-1 0 50 0 50 95 0 c95 0 95 0 95 25 0 25 0 25 -95 25 -125 0 -127 -19 -2 -22
l92 -2 -89 -3 c-99 -4 -113 -12 -118 -66 -2 -30 -6 -35 -18 -27 -13 9 -13 11
0 21 11 8 12 12 3 16 -9 3 -13 36 -13 114 l0 109 156 0 156 0 41 -46z m22
-204 c-3 -5 -13 -10 -21 -10 -8 0 -12 5 -9 10 3 6 13 10 21 10 8 0 12 -4 9
-10z"/>
<path d="M2125 1380 c-4 -6 24 -10 77 -10 92 0 108 -8 108 -52 0 -50 -30 -68
-116 -68 -47 0 -73 -4 -69 -10 3 -5 36 -10 73 -10 55 0 72 4 94 23 41 33 45
67 13 105 -26 31 -30 32 -100 32 -41 0 -77 -4 -80 -10z"/>
<path d="M1440 1325 c0 -28 4 -44 10 -40 6 3 10 21 10 40 0 19 -4 37 -10 40
-6 4 -10 -12 -10 -40z"/>
<path d="M2100 1311 c0 -28 5 -51 10 -51 6 0 10 20 10 44 0 25 -4 48 -10 51
-6 4 -10 -13 -10 -44z"/>
<path d="M2450 1423 c0 -5 44 -7 97 -5 150 4 161 9 26 11 -68 0 -123 -2 -123
-6z"/>
<path d="M2860 1260 c0 -93 0 -173 0 -177 0 -5 61 -9 135 -11 l135 -3 0 31 0
30 -105 0 -105 0 0 50 0 50 100 0 100 0 0 25 0 25 -100 0 -100 0 0 46 c0 27
-4 43 -10 39 -14 -9 -12 -67 4 -87 10 -14 32 -18 107 -21 l94 -3 -94 -2 c-105
-2 -120 -11 -121 -71 0 -36 -14 -34 -16 2 -1 12 -5 70 -9 130 l-8 107 122 0
c101 0 121 -2 121 -15 0 -12 -17 -15 -90 -15 -53 0 -90 -4 -90 -10 0 -6 40
-10 99 -10 l98 0 -1 30 -1 30 -132 0 -133 0 0 -170z"/>
<path d="M3263 1423 c-61 -12 -86 -121 -40 -167 19 -19 39 -25 104 -31 72 -6
82 -10 94 -31 23 -43 -5 -58 -119 -64 -95 -5 -97 -5 -96 -30 l0 -25 112 0 c97
1 115 3 139 21 24 18 28 29 31 81 4 82 -13 97 -118 102 -62 2 -83 7 -96 22
-14 16 -15 24 -6 44 11 24 15 25 110 25 l99 0 0 30 0 30 -96 -1 c-53 -1 -106
-4 -118 -6z m197 -18 c0 -12 -16 -15 -82 -15 -85 -1 -103 -7 -125 -47 -10 -18
-8 -25 16 -52 25 -28 33 -31 87 -31 76 0 102 -8 110 -32 10 -31 -3 -33 -46 -4
-32 21 -51 26 -104 26 -77 0 -106 21 -106 77 0 66 47 92 163 93 71 0 87 -3 87
-15z m10 -247 c0 -19 -2 -20 -10 -8 -13 19 -13 30 0 30 6 0 10 -10 10 -22z"/>
<path d="M3615 1423 c-44 -11 -65 -43 -65 -99 0 -70 23 -89 123 -99 80 -8 97
-17 97 -51 0 -34 -28 -44 -129 -44 l-91 0 0 -31 0 -32 113 5 c126 6 148 14
171 59 20 40 20 62 2 98 -19 37 -55 51 -127 51 -71 0 -99 12 -99 43 0 40 18
47 116 47 l91 0 -1 30 -1 30 -90 -1 c-49 -1 -99 -3 -110 -6z m185 -18 c0 -12
-15 -15 -77 -15 -65 0 -80 -3 -100 -22 -29 -27 -29 -55 -1 -85 18 -20 31 -23
90 -23 62 0 72 -3 93 -26 46 -49 21 -53 -41 -7 -25 18 -44 23 -93 23 -73 0
-96 10 -105 46 -11 44 3 84 37 105 42 25 197 28 197 4z m28 -236 c-2 -6 -8
-10 -13 -10 -5 0 -11 4 -13 10 -2 6 4 11 13 11 9 0 15 -5 13 -11z"/>
<path d="M2728 1400 c18 -11 35 -27 38 -35 8 -19 -2 -60 -19 -77 -52 -57 -52
-56 -29 -77 12 -10 19 -21 15 -25 -3 -3 -1 -6 5 -6 7 0 12 -6 12 -12 -1 -8 -8
-4 -18 7 -37 44 -64 55 -138 55 -40 0 -74 -4 -76 -9 -1 -4 -13 -12 -25 -15
-23 -7 -23 -6 -23 86 0 64 -3 88 -10 78 -5 -8 -10 -79 -10 -157 l0 -143 35 0
35 0 0 70 0 70 75 0 c95 0 115 -16 115 -90 l0 -50 35 0 c35 0 35 0 35 44 0 58
-15 97 -40 103 -28 7 -25 20 10 53 24 22 30 36 30 69 0 45 -29 81 -64 81 -17
0 -15 -4 12 -20z m-238 -230 c0 -5 -4 -10 -10 -10 -5 0 -10 5 -10 10 0 6 5 10
10 10 6 0 10 -4 10 -10z"/>
<path d="M2525 1380 c-4 -6 25 -10 79 -10 74 0 87 -3 96 -19 29 -56 -4 -84
-108 -92 l-77 -5 82 -2 c73 -2 85 0 103 20 27 29 25 69 -3 96 -19 18 -35 22
-95 22 -39 0 -74 -4 -77 -10z"/>
<path d="M2503 1315 c0 -27 2 -38 4 -22 2 15 2 37 0 50 -2 12 -4 0 -4 -28z"/>
<path d="M230 1190 c0 -7 178 -10 515 -10 337 0 515 3 515 10 0 7 -178 10
-515 10 -337 0 -515 -3 -515 -10z"/>
<path d="M7390 924 c-16 -8 -19 -14 -9 -14 8 0 24 7 35 15 24 18 7 18 -26 -1z"/>
<path d="M7336 894 c-11 -8 -16 -14 -10 -14 13 0 39 18 34 24 -3 2 -14 -2 -24
-10z"/>
<path d="M7235 846 c-99 -48 -205 -96 -212 -96 -3 0 -21 -7 -41 -16 -21 -9
-46 -20 -57 -24 -11 -5 -36 -15 -55 -23 -19 -8 -64 -25 -100 -37 -36 -12 -74
-26 -85 -30 -24 -10 -187 -61 -270 -84 -33 -10 -71 -22 -85 -27 -14 -5 -45
-13 -70 -18 -25 -6 -74 -17 -110 -26 -135 -32 -240 -53 -395 -79 -55 -9 -120
-21 -145 -25 -25 -5 578 -9 1388 -10 970 -1 1431 2 1427 9 -4 7 -434 10 -1303
10 -713 0 -1301 0 -1307 1 -5 1 8 5 30 10 22 4 627 8 1345 9 824 0 1311 4
1320 10 10 6 -422 10 -1229 10 -684 0 -1241 3 -1237 7 3 4 46 15 94 25 80 16
175 18 1267 20 l1180 3 -1150 5 c-632 3 -1145 8 -1140 12 6 3 27 9 48 13 20 4
40 11 43 16 3 5 14 9 24 9 17 0 174 47 235 70 11 4 43 16 70 25 48 17 83 31
153 61 18 8 37 14 42 14 5 0 39 14 77 31 37 16 77 34 88 39 76 33 235 111 235
115 0 7 3 8 -75 -29z"/>
<path d="M8595 449 c-22 -21 -34 -39 -27 -39 14 0 72 59 72 72 0 11 0 11 -45
-33z"/>
<path d="M4292 360 c-18 -17 -29 -30 -24 -30 5 0 21 14 37 30 37 38 30 38 -13
0z"/>
<path d="M5488 343 c12 -2 30 -2 40 0 9 3 -1 5 -23 4 -22 0 -30 -2 -17 -4z"/>
</g>
</svg>
