<?xml version="1.0" standalone="no"?>
<!DOCTYPE svg PUBLIC "-//W3C//DTD SVG 20010904//EN"
 "http://www.w3.org/TR/2001/REC-SVG-20010904/DTD/svg10.dtd">
<svg version="1.0" xmlns="http://www.w3.org/2000/svg"
 width="2670.000000pt" height="2460.000000pt" viewBox="0 0 2670.000000 2460.000000"
 preserveAspectRatio="xMidYMid meet">

<g transform="translate(0.000000,2460.000000) scale(0.100000,-0.100000)"
fill="#000000" stroke="none">
<path d="M12355 17906 c-76 -18 46 32 -1185 -478 -620 -257 -1091 -458 -1127
-481 -119 -74 -211 -207 -249 -357 -21 -81 -14 -221 14 -300 32 -90 2027
-4901 2057 -4960 40 -80 164 -199 246 -238 100 -48 188 -65 294 -59 50 3 106
11 125 18 94 33 2211 914 2250 936 62 37 160 137 197 203 65 116 91 245 73
367 -11 74 -115 340 -406 1037 -30 71 -53 130 -52 131 8 6 344 -17 458 -30
145 -18 346 -54 475 -86 193 -49 467 -149 627 -230 l58 -29 0 1034 0 1034 -97
50 c-128 65 -306 135 -455 178 -66 19 -123 36 -127 38 -3 2 -100 231 -216 509
l-210 505 -35 6 c-80 14 -342 18 -474 7 -298 -25 -563 -83 -905 -197 -123 -41
-225 -73 -226 -72 -1 2 -45 107 -97 233 -259 624 -382 914 -406 958 -34 63
-114 146 -184 191 -121 77 -297 111 -423 82z m206 -311 c23 -9 57 -27 76 -41
57 -44 39 -3 388 -852 86 -211 156 -385 154 -386 -2 -2 -56 -30 -119 -61 -232
-116 -479 -271 -661 -416 -107 -85 -324 -292 -409 -390 l-49 -55 418 -1010
c229 -555 420 -1016 423 -1025 6 -14 20 -10 100 31 238 123 545 220 876 276
147 25 459 58 488 52 9 -2 102 -211 255 -578 257 -614 266 -641 240 -737 -12
-46 -61 -115 -101 -145 -35 -25 -2164 -907 -2222 -919 -95 -21 -217 28 -270
109 -29 44 -2036 4884 -2055 4957 -16 57 -10 109 19 178 42 97 18 86 1094 531
544 226 1036 429 1094 453 117 48 184 55 261 28z"/>
<path d="M12685 9375 c-68 -37 -114 -107 -115 -173 0 -81 64 -164 145 -187 45
-13 57 -13 101 0 80 24 144 106 144 188 0 46 -38 115 -83 151 -31 25 -49 31
-100 34 -44 2 -71 -2 -92 -13z"/>
<path d="M7158 9308 c-25 -19 -557 -1708 -546 -1730 8 -16 27 -18 182 -18 127
0 176 3 183 13 6 6 88 261 184 564 129 412 178 553 189 553 11 0 70 -145 209
-512 107 -282 205 -537 217 -565 l23 -53 120 0 c113 0 121 1 137 23 9 12 105
265 214 562 162 442 201 540 216 540 15 0 45 -88 189 -550 93 -302 174 -556
178 -562 6 -10 56 -13 193 -13 158 0 185 2 191 16 7 19 -514 1703 -535 1727
-13 15 -35 17 -160 17 -117 0 -149 -3 -162 -15 -10 -9 -111 -259 -226 -555
-150 -388 -213 -540 -224 -540 -11 0 -75 151 -225 537 -116 296 -218 546 -227
555 -16 16 -38 18 -161 18 -99 0 -148 -4 -159 -12z"/>
<path d="M10987 9302 c-16 -17 -17 -91 -17 -861 0 -561 3 -849 10 -862 10 -17
23 -19 160 -19 167 0 170 1 170 74 0 50 22 47 110 -14 102 -70 181 -95 300
-94 167 1 306 59 425 179 80 80 126 153 160 252 46 131 56 256 31 387 -49 256
-208 442 -446 522 -40 14 -84 19 -165 19 -129 0 -206 -22 -306 -86 -98 -64
-93 -75 -99 234 -4 223 -7 269 -20 277 -8 5 -78 10 -156 10 -124 0 -143 -2
-157 -18z m787 -753 c124 -46 215 -173 224 -313 10 -165 -70 -303 -215 -368
-72 -33 -189 -31 -264 4 -79 36 -133 89 -171 166 -31 62 -33 74 -33 167 0 89
3 107 28 160 44 94 126 168 217 196 51 15 158 10 214 -12z"/>
<path d="M13247 9302 c-16 -17 -17 -80 -17 -698 1 -722 4 -784 49 -872 62
-121 155 -168 367 -188 65 -6 74 -4 93 15 19 19 21 32 21 134 0 77 -4 119 -13
131 -7 10 -35 22 -61 27 -27 5 -56 15 -64 21 -41 35 -42 49 -42 746 0 635 -1
670 -18 685 -15 14 -42 17 -159 17 -123 0 -142 -2 -156 -18z"/>
<path d="M15436 9298 c-14 -20 -16 -108 -16 -855 0 -516 4 -841 10 -857 l10
-26 159 0 c154 0 160 1 175 22 14 19 16 64 16 285 0 249 1 263 19 273 12 6
122 10 288 10 310 0 364 8 493 71 64 32 103 60 156 113 116 115 164 236 164
408 0 280 -151 477 -425 555 -52 15 -125 17 -547 21 l-486 3 -16 -23z m939
-299 c63 -21 140 -103 159 -168 44 -149 -15 -295 -141 -358 l-58 -28 -258 -3
c-189 -2 -262 0 -273 9 -11 9 -14 60 -14 281 l0 269 23 9 c34 15 513 5 562
-11z"/>
<path d="M9890 8875 c-268 -54 -474 -255 -531 -520 -18 -83 -16 -236 4 -315
61 -236 243 -425 474 -489 273 -75 566 9 735 212 281 338 175 863 -212 1050
-150 73 -310 94 -470 62z m295 -337 c68 -35 128 -97 162 -166 25 -51 28 -67
28 -162 0 -93 -3 -112 -27 -162 -35 -76 -98 -142 -167 -175 -48 -24 -68 -28
-141 -28 -73 0 -93 4 -141 28 -62 30 -136 103 -167 163 -81 161 -30 376 113
474 72 50 110 60 205 57 68 -3 95 -9 135 -29z"/>
<path d="M14385 8874 c-38 -8 -112 -35 -163 -60 -228 -111 -362 -338 -362
-614 0 -204 58 -350 194 -485 134 -134 272 -188 476 -189 197 0 353 60 486
186 98 93 160 210 129 242 -14 13 -42 16 -160 16 l-144 0 -63 -55 c-78 -68
-145 -95 -237 -95 -94 0 -162 24 -222 78 -59 53 -90 108 -92 165 l-2 42 473 5
c547 6 502 -4 502 112 0 95 -25 198 -70 293 -135 282 -430 424 -745 359z m245
-295 c66 -20 131 -78 168 -149 58 -111 75 -105 -270 -108 l-298 -2 0 24 c0 56
61 152 125 196 81 56 175 69 275 39z"/>
<path d="M17532 8870 c-139 -37 -264 -122 -350 -236 -227 -302 -170 -759 121
-980 117 -89 235 -129 382 -128 144 0 269 48 377 143 25 22 54 41 65 41 10 0
33 -21 53 -47 47 -63 120 -100 228 -114 119 -16 122 -13 122 147 0 130 -8 154
-51 154 -10 0 -28 9 -39 20 -19 19 -20 33 -20 485 0 452 -1 466 -20 485 -18
18 -33 20 -148 20 -152 0 -172 -8 -172 -70 0 -21 -5 -42 -11 -45 -5 -4 -43 16
-84 43 -106 71 -170 94 -285 98 -73 3 -112 0 -168 -16z m353 -332 c67 -35 128
-100 162 -173 25 -53 28 -71 28 -160 0 -87 -4 -107 -27 -157 -35 -76 -98 -142
-167 -175 -48 -24 -68 -28 -141 -28 -71 0 -94 4 -141 26 -75 35 -134 96 -172
177 -29 60 -32 76 -31 157 1 122 27 190 103 266 77 77 138 100 251 96 68 -3
95 -9 135 -29z"/>
<path d="M12607 8842 c-15 -17 -17 -76 -17 -638 0 -469 3 -623 12 -632 8 -8
58 -12 159 -12 121 0 150 3 163 16 14 14 16 85 16 630 0 601 0 614 -20 634
-18 18 -33 20 -158 20 -122 0 -141 -2 -155 -18z"/>
<path d="M18608 8849 c-10 -5 -18 -19 -18 -30 0 -12 110 -269 244 -572 134
-304 247 -562 251 -575 10 -33 -12 -114 -46 -165 -54 -82 -166 -141 -292 -154
-34 -3 -68 -10 -74 -16 -9 -7 -13 -47 -13 -138 0 -155 -1 -155 126 -146 278
20 458 154 607 452 28 56 512 1197 547 1291 8 19 5 29 -10 44 -18 18 -34 20
-153 20 -116 0 -136 -2 -150 -18 -9 -10 -81 -176 -161 -369 -79 -192 -149
-360 -155 -372 -13 -23 -43 -28 -58 -8 -6 6 -81 176 -167 377 -87 201 -164
371 -173 378 -21 15 -279 16 -305 1z"/>
</g>
</svg>
